# xmcd CD database file
#
# Track frame offsets:
#	150
#	17362
#	39100
#	56425
#	74250
#	92712
#	111412
#	129712
#	141600
#	168137
#	183387
#	205925
#
# Disc length: 2900 seconds
#
# Revision: 2
# Processed by: cddbd v1.4PL0 Copyright (c) Steve Scherf et al.
# Submitted via: CDex 1.40Beta9
#
DISCID=a40b520c
DTITLE=Western Union - Endloser Sommer
DYEAR=1989
DGENRE=Country
TTITLE0=Baby, Sag Ja
TTITLE1=L.I.E.B.E.
TTITLE2=Man Sollte Einen Drink Nach Dir Benennen
TTITLE3=Ich Hab Dich
TTITLE4=Ich Seh Die Groﬂe Welt Nur Durch Die Windschutzscheibe
TTITLE5=Opfer
TTITLE6=Gottseidank Ist Endlich Wieder Sommer
TTITLE7=Ein Mann Mit Bauch, Der Tut's Doch  Auch
TTITLE8=Truckdiver Blues
TTITLE9=Fr‰ulein
TTITLE10=Du Das Mag Ich
TTITLE11=Hawaiitoast
EXTD=YEAR: 1989 ID3G: 2
EXTT0=
EXTT1=
EXTT2=
EXTT3=
EXTT4=
EXTT5=
EXTT6=
EXTT7=
EXTT8=
EXTT9=
EXTT10=
EXTT11=
PLAYORDER=
